<?xml version="1.0" encoding="UTF-8" standalone="no"?>
<svg
   xmlns:dc="http://purl.org/dc/elements/1.1/"
   xmlns:cc="http://creativecommons.org/ns#"
   xmlns:rdf="http://www.w3.org/1999/02/22-rdf-syntax-ns#"
   xmlns:svg="http://www.w3.org/2000/svg"
   xmlns="http://www.w3.org/2000/svg"
   viewBox="0 0 1588.3867 1123.6801"
   height="1123.6801"
   width="1588.3867"
   xml:space="preserve"
   id="svg2"
   version="1.1"><metadata
     id="metadata8"><rdf:RDF><cc:Work
         rdf:about=""><dc:format>image/svg+xml</dc:format><dc:type
           rdf:resource="http://purl.org/dc/dcmitype/StillImage" /></cc:Work></rdf:RDF></metadata><defs
     id="defs6" /><g
     transform="matrix(1.3333333,0,0,-1.3333333,0,1123.68)"
     id="g10"><g
       transform="scale(0.1)"
       id="g12"><path
         id="path14"
         style="fill:#ffffff;fill-opacity:1;fill-rule:nonzero;stroke:none"
         d="m 8602.47,4217.56 c 0.49,1452.84 -1171.65,2629.14 -2622.09,2636.61 -1450.62,7.48 -2645.5,-1158.91 -2648.85,-2628.88 -3.34,-1473.82 1188.16,-2637.32 2626.73,-2641.7 1455.59,-4.43 2643.27,1171.9 2644.21,2633.97 z M 0,-0.0117188 C 0,2808.82 0,5617.66 0,8427.64 c 3970.54,0 7941.74,0 11912.9,0 0,-2809.16 0,-5618.41 0,-8427.6517188 -3970.78,0 -7941.51,0 -11912.9,0" /><path
         id="path16"
         style="fill:#231f20;fill-opacity:1;fill-rule:nonzero;stroke:none"
         d="m 8528.31,4199.12 c 0.13,134.61 -13.72,296.87 -34.84,419.4 -47.86,277.75 -135.73,542.08 -267.41,791.45 -126.38,239.34 -282.08,457.86 -478.86,644.09 -460.86,436.14 -1010.69,673.71 -1642.35,722.15 -129.29,9.91 -259.12,5.31 -388.03,-9.77 -118.98,-13.92 -236.86,-34.56 -353.23,-63.95 -438.26,-110.66 -823.73,-319.01 -1154.44,-626.69 -204.42,-190.19 -367.04,-413.15 -497.78,-659.47 -178.79,-336.84 -278.11,-696.25 -302.42,-1076.43 -10.87,-169.94 2.04,-338.94 29.45,-506.67 42.27,-258.77 120.63,-506.31 236.95,-741.52 133.05,-269.06 303.98,-511.11 521.66,-718.31 236.45,-225.07 507.56,-397.54 809.6,-521.43 182.43,-74.84 371.03,-128.38 565.42,-160.16 86.61,-14.16 174.21,-24.7 261.78,-30.16 211.75,-13.19 421.76,5.39 629.23,48.56 275.6,57.34 536.12,155.55 780.26,296.25 202,116.42 387.25,255.15 549.96,422.36 191.09,196.38 345.79,418.87 466.22,665 173.43,354.47 263.2,729.04 268.83,1105.3 z m 74.16,18.44 c -0.94,-1462.07 -1188.62,-2638.4 -2644.21,-2633.97 -1438.57,4.38 -2630.07,1167.88 -2626.73,2641.7 3.35,1469.97 1198.23,2636.36 2648.85,2628.88 1450.44,-7.47 2622.58,-1183.77 2622.09,-2636.61" /><path
         id="path18"
         style="fill:#ffffff;fill-opacity:1;fill-rule:nonzero;stroke:none"
         d="m 6066.82,6490.92 c 3.03,48.94 -36.66,100.65 -97.99,102.51 -50.95,1.54 -100.74,-37.89 -102.41,-98.57 -1.73,-62.6 53.45,-101.55 98.48,-102.21 54.4,-0.8 103.34,45.57 101.92,98.27 z M 8243.39,4115.2 c 57.7,-1.19 105.29,43.29 107.15,100.16 1.86,57.19 -42.68,104.73 -100.14,106.89 -60.11,2.25 -108.99,-43.36 -109.59,-102.27 -0.57,-57.04 44.99,-103.58 102.58,-104.78 z m -4559.57,0.01 c 57.67,-1.06 105.14,43.61 106.78,100.49 1.65,57.29 -42.92,104.38 -100.44,106.62 -73.02,2.84 -109.61,-58.45 -109.46,-102.67 0.2,-56.96 45.51,-103.4 103.12,-104.44 z M 5963.29,2229.67 c 1095.96,5.52 1982.41,873.54 1992.55,1989.26 -10.14,1113.47 -893.49,1986.34 -1987.65,1987.69 -1095.86,1.34 -1982.31,-872.08 -1992.56,-1987.6 10.07,-1113.94 893.7,-1981.16 1987.66,-1989.35 z m 2565.02,1969.45 c -5.63,-376.26 -95.4,-750.83 -268.83,-1105.3 -120.43,-246.13 -275.13,-468.62 -466.22,-665 -162.71,-167.21 -347.96,-305.94 -549.96,-422.36 -244.14,-140.7 -504.66,-238.91 -780.26,-296.25 -207.47,-43.17 -417.48,-61.75 -629.23,-48.56 -87.57,5.46 -175.17,16 -261.78,30.16 -194.39,31.78 -382.99,85.32 -565.42,160.16 -302.04,123.89 -573.15,296.36 -809.6,521.43 -217.68,207.2 -388.61,449.25 -521.66,718.31 -116.32,235.21 -194.68,482.75 -236.95,741.52 -27.41,167.73 -40.32,336.73 -29.45,506.67 24.31,380.18 123.63,739.59 302.42,1076.43 130.74,246.32 293.36,469.28 497.78,659.47 330.71,307.68 716.18,516.03 1154.44,626.69 116.37,29.39 234.25,50.03 353.23,63.95 128.91,15.08 258.74,19.68 388.03,9.77 631.66,-48.44 1181.49,-286.01 1642.35,-722.15 196.78,-186.23 352.48,-404.75 478.86,-644.09 131.68,-249.37 219.55,-513.7 267.41,-791.45 21.12,-122.53 34.97,-284.79 34.84,-419.4" /><path
         id="path20"
         style="fill:#231f20;fill-opacity:1;fill-rule:nonzero;stroke:none"
         d="m 7898.98,4247.3 c -4.81,53.52 -9.06,138.36 -20.6,222.19 -26.33,191.14 -80.29,374.74 -161.1,550.16 -100.06,217.2 -231.18,413.77 -404.59,578.62 -348.97,331.75 -764.97,514.03 -1246.11,548.67 -117.44,8.45 -233.53,0.97 -349.12,-14.63 -166.8,-22.52 -328.27,-66.97 -483.94,-131.8 -242.13,-100.82 -458.06,-241.59 -641.86,-428.76 -188.44,-191.87 -328.7,-415.71 -425.71,-666.55 -64.39,-166.47 -105.13,-338.78 -122.71,-516.21 -6.61,-66.73 -10.69,-134.23 -8.89,-201.18 4.42,-163.63 27.63,-325.05 74.2,-482.22 150.76,-508.84 448.01,-903.71 913.71,-1165.51 258.72,-145.45 536.6,-227.23 833.06,-248.86 93.21,-6.79 185.56,-4.01 277.79,4.49 117.8,10.85 234.21,32.23 347.75,66.1 524.39,156.44 925.41,467.18 1184.97,952.67 150.46,281.41 225.53,582.92 233.15,932.82 z M 5963.29,2229.67 c -1093.96,8.19 -1977.59,875.41 -1987.66,1989.35 10.25,1115.52 896.7,1988.94 1992.56,1987.6 C 7062.35,6205.27 7945.7,5332.4 7955.84,4218.93 7945.7,3103.21 7059.25,2235.19 5963.29,2229.67" /><path
         id="path22"
         style="fill:#231f20;fill-opacity:1;fill-rule:nonzero;stroke:none"
         d="m 3683.82,4115.21 c -57.61,1.04 -102.92,47.48 -103.12,104.44 -0.15,44.22 36.44,105.51 109.46,102.67 57.52,-2.24 102.09,-49.33 100.44,-106.62 -1.64,-56.88 -49.11,-101.55 -106.78,-100.49" /><path
         id="path24"
         style="fill:#231f20;fill-opacity:1;fill-rule:nonzero;stroke:none"
         d="m 8243.39,4115.2 c -57.59,1.2 -103.15,47.74 -102.58,104.78 0.6,58.91 49.48,104.52 109.59,102.27 57.46,-2.16 102,-49.7 100.14,-106.89 -1.86,-56.87 -49.45,-101.35 -107.15,-100.16" /><path
         id="path26"
         style="fill:#231f20;fill-opacity:1;fill-rule:nonzero;stroke:none"
         d="m 6066.82,6490.92 c 1.42,-52.7 -47.52,-99.07 -101.92,-98.27 -45.03,0.66 -100.21,39.61 -98.48,102.21 1.67,60.68 51.46,100.11 102.41,98.57 61.33,-1.86 101.02,-53.57 97.99,-102.51" /><path
         id="path28"
         style="fill:#ffffff;fill-opacity:1;fill-rule:nonzero;stroke:none"
         d="m 6034,3102.51 c 16.66,68.37 17.58,132.16 0.06,195.25 -50.55,6.36 -105.34,5.7 -143.27,-2 -9.67,-63.33 -15.93,-127.32 4.6,-192.46 45.99,-4.6 90.16,-3.06 138.61,-0.79 z m 16.66,-5.52 c 44.42,-43.54 92.33,-74.88 143.99,-100.63 81.9,-40.83 168.52,-67.02 258.71,-81.71 21.56,-3.51 33.78,1.28 43.93,19.19 5.46,9.63 9.28,20.28 13.17,30.71 58.71,157.49 57.57,315.12 0.13,472.58 -18.47,50.64 -26.28,55.77 -77.25,45.99 -104.05,-19.99 -203.1,-54.04 -293.58,-110.34 -31.05,-19.32 -60.95,-40.27 -86.36,-69.14 8.72,-68.58 12.63,-136.85 -2.74,-206.65 z m -172.72,212.29 c -20.74,16.54 -36.49,30.01 -53.17,42.22 -37.51,27.44 -78.41,48.96 -120.78,67.95 -68.8,30.83 -140.48,52.2 -214.67,64.7 -39.66,6.69 -48.73,1.28 -62.76,-33.77 -32.41,-81 -48.97,-165.99 -48.54,-252.53 0.41,-81.57 14.98,-162.08 45.89,-238.59 4.17,-10.32 8.06,-21.17 14.44,-30.1 8.77,-12.25 21.41,-18.6 37.46,-15.75 115.62,20.52 226.14,55.05 325.69,119.32 26.76,17.27 52.95,35.47 76.57,62.09 -15.62,69.58 -14.32,140.97 -0.13,214.46 z m -577.55,901.03 c -20.98,8.92 -36.92,-1.14 -53.47,-5.09 -65.39,-15.61 -128.91,-36.55 -188.64,-67.83 -27.04,-14.15 -52.43,-30.91 -72.34,-54.44 -29.53,-34.92 -29.81,-68.41 -0.69,-103.86 8.03,-9.78 17.45,-19.03 27.88,-26.08 19.77,-13.38 40.24,-25.95 61.32,-37.15 49.62,-26.37 103.39,-41.91 157.23,-56.62 168.77,-46.07 341.67,-66.13 515.63,-74.8 170.81,-8.52 341.77,-7.94 512.59,6.34 117.88,9.85 234.78,24.96 350.33,49.95 73.38,15.87 146.03,35.08 213.96,67.81 28.58,13.76 57.03,29.68 81.53,49.55 54.75,44.38 53.95,94.29 0.6,141.01 -27.94,24.46 -60.64,41.27 -94.5,55.83 -55.84,24.01 -113.93,41.26 -172.84,55.7 -8.84,2.16 -18.42,1.31 -30.03,1.98 -5.75,-39.66 1.57,-78.28 -4.6,-113.68 -22.61,-21.67 -48.62,-29.99 -74.28,-38.39 -64.07,-20.97 -130.51,-31.25 -197.19,-37.54 -79.48,-7.5 -159.29,-12.06 -239.07,-15.61 -158.27,-7.05 -316.23,-0.7 -474.06,12.47 -68.59,5.71 -136.43,15.17 -203.1,31.74 -27.7,6.88 -54.49,17.77 -81.26,27.96 -23.27,8.86 -34.33,24.87 -32.62,51.75 1.68,26.51 2.94,53.7 -2.38,79 z m 654.95,24.55 c 153.15,5.2 300.35,6.23 446.16,28.59 53.68,8.22 106.67,19.74 157.87,38.82 26.97,10.05 40.56,26.29 41.81,56.36 2.33,55.89 7.01,111.72 12.31,167.42 7.26,76.37 15.34,152.69 24.33,228.88 10.49,88.88 22.54,177.58 33.56,266.4 11.81,95.16 21.63,190.62 35.46,285.49 6.67,45.73 -6.58,81.41 -37.75,112.93 -25.05,25.33 -54.65,44.16 -85.86,60.6 -58.23,30.68 -120.16,51.64 -183.73,67.98 -121.2,31.16 -244.47,46.61 -369.53,50 -158.8,4.31 -316.4,-4.71 -471.48,-41.1 -70,-16.43 -138.97,-36.92 -203.81,-68.92 -34.52,-17.03 -67.24,-37.06 -95.18,-63.94 -29.16,-28.05 -44.37,-60.41 -39.53,-102.88 13.22,-115.92 24.11,-232.1 36.17,-348.16 7.44,-71.54 16.15,-142.97 22.79,-214.59 8.57,-92.31 15.88,-184.73 23.23,-277.14 3.43,-43.03 6.42,-86.11 8.19,-129.23 0.9,-22.09 10.18,-36.27 30.81,-43.24 27.17,-9.18 53.98,-19.79 81.68,-26.99 85.38,-22.19 173,-30.81 260.59,-36.58 92.51,-6.1 185.33,-7.48 271.91,-10.7 z m 1943.64,12.44 c -7.62,-349.9 -82.69,-651.41 -233.15,-932.82 -259.56,-485.49 -660.58,-796.23 -1184.97,-952.67 -113.54,-33.87 -229.95,-55.25 -347.75,-66.1 -92.23,-8.5 -184.58,-11.28 -277.79,-4.49 -296.46,21.63 -574.34,103.41 -833.06,248.86 -465.7,261.8 -762.95,656.67 -913.71,1165.51 -46.57,157.17 -69.78,318.59 -74.2,482.22 -1.8,66.95 2.28,134.45 8.89,201.18 17.58,177.43 58.32,349.74 122.71,516.21 97.01,250.84 237.27,474.68 425.71,666.55 183.8,187.17 399.73,327.94 641.86,428.76 155.67,64.83 317.14,109.28 483.94,131.8 115.59,15.6 231.68,23.08 349.12,14.63 481.14,-34.64 897.14,-216.92 1246.11,-548.67 173.41,-164.85 304.53,-361.42 404.59,-578.62 80.81,-175.42 134.77,-359.02 161.1,-550.16 11.54,-83.83 15.79,-168.67 20.6,-222.19" /><path
         id="path30"
         style="fill:#231f20;fill-opacity:1;fill-rule:nonzero;stroke:none"
         d="m 5955.34,4234.86 c -86.58,3.22 -179.4,4.6 -271.91,10.7 -87.59,5.77 -175.21,14.39 -260.59,36.58 -27.7,7.2 -54.51,17.81 -81.68,26.99 -20.63,6.97 -29.91,21.15 -30.81,43.24 -1.77,43.12 -4.76,86.2 -8.19,129.23 -7.35,92.41 -14.66,184.83 -23.23,277.14 -6.64,71.62 -15.35,143.05 -22.79,214.59 -12.06,116.06 -22.95,232.24 -36.17,348.16 -4.84,42.47 10.37,74.83 39.53,102.88 27.94,26.88 60.66,46.91 95.18,63.94 64.84,32 133.81,52.49 203.81,68.92 155.08,36.39 312.68,45.41 471.48,41.1 125.06,-3.39 248.33,-18.84 369.53,-50 63.57,-16.34 125.5,-37.3 183.73,-67.98 31.21,-16.44 60.81,-35.27 85.86,-60.6 31.17,-31.52 44.42,-67.2 37.75,-112.93 -13.83,-94.87 -23.65,-190.33 -35.46,-285.49 -11.02,-88.82 -23.07,-177.52 -33.56,-266.4 -8.99,-76.19 -17.07,-152.51 -24.33,-228.88 -5.3,-55.7 -9.98,-111.53 -12.31,-167.42 -1.25,-30.07 -14.84,-46.31 -41.81,-56.36 -51.2,-19.08 -104.19,-30.6 -157.87,-38.82 -145.81,-22.36 -293.01,-23.39 -446.16,-28.59" /><path
         id="path32"
         style="fill:#231f20;fill-opacity:1;fill-rule:nonzero;stroke:none"
         d="m 5300.39,4210.31 c 5.32,-25.3 4.06,-52.49 2.38,-79 -1.71,-26.88 9.35,-42.89 32.62,-51.75 26.77,-10.19 53.56,-21.08 81.26,-27.96 66.67,-16.57 134.51,-26.03 203.1,-31.74 157.83,-13.17 315.79,-19.52 474.06,-12.47 79.78,3.55 159.59,8.11 239.07,15.61 66.68,6.29 133.12,16.57 197.19,37.54 25.66,8.4 51.67,16.72 74.28,38.39 6.17,35.4 -1.15,74.02 4.6,113.68 11.61,-0.67 21.19,0.18 30.03,-1.98 58.91,-14.44 117,-31.69 172.84,-55.7 33.86,-14.56 66.56,-31.37 94.5,-55.83 53.35,-46.72 54.15,-96.63 -0.6,-141.01 -24.5,-19.87 -52.95,-35.79 -81.53,-49.55 -67.93,-32.73 -140.58,-51.94 -213.96,-67.81 -115.55,-24.99 -232.45,-40.1 -350.33,-49.95 -170.82,-14.28 -341.78,-14.86 -512.59,-6.34 -173.96,8.67 -346.86,28.73 -515.63,74.8 -53.84,14.71 -107.61,30.25 -157.23,56.62 -21.08,11.2 -41.55,23.77 -61.32,37.15 -10.43,7.05 -19.85,16.3 -27.88,26.08 -29.12,35.45 -28.84,68.94 0.69,103.86 19.91,23.53 45.3,40.29 72.34,54.44 59.73,31.28 123.25,52.22 188.64,67.83 16.55,3.95 32.49,14.01 53.47,5.09" /><path
         id="path34"
         style="fill:#231f20;fill-opacity:1;fill-rule:nonzero;stroke:none"
         d="m 5760.48,3241.88 c -1.04,32.95 -26.38,57.06 -58.18,55.36 -31.41,-1.67 -56.78,-29.09 -55.3,-59.77 1.5,-30.86 29.52,-57.28 59.68,-56.24 31.15,1.08 54.84,27.78 53.8,60.65 z m -19.03,-188.28 c -0.52,32.46 -26.01,57.77 -57.42,57 -29.84,-0.72 -57.58,-29.81 -56.5,-59.24 1.15,-31.42 27.86,-57.28 58.67,-56.81 31.65,0.49 55.77,26.28 55.25,59.05 z m -163.17,331.27 c 1.66,32.66 -21.29,59.59 -52.6,61.72 -30.16,2.06 -58.4,-23.12 -61.04,-54.4 -2.51,-29.75 23.34,-59.3 53.76,-61.42 31.61,-2.22 58.23,21.84 59.88,54.1 z m -69.24,-322.99 c 30.98,0.65 57,27.99 56.18,59.01 -0.84,31.33 -27.69,57.48 -58.5,56.96 -31.14,-0.53 -56.13,-27.18 -55.56,-59.25 0.58,-32.26 26.22,-57.39 57.88,-56.72 z m 368.9,247.4 c -14.19,-73.49 -15.49,-144.88 0.13,-214.46 -23.62,-26.62 -49.81,-44.82 -76.57,-62.09 -99.55,-64.27 -210.07,-98.8 -325.69,-119.32 -16.05,-2.85 -28.69,3.5 -37.46,15.75 -6.38,8.93 -10.27,19.78 -14.44,30.1 -30.91,76.51 -45.48,157.02 -45.89,238.59 -0.43,86.54 16.13,171.53 48.54,252.53 14.03,35.05 23.1,40.46 62.76,33.77 74.19,-12.5 145.87,-33.87 214.67,-64.7 42.37,-18.99 83.27,-40.51 120.78,-67.95 16.68,-12.21 32.43,-25.68 53.17,-42.22" /><path
         id="path36"
         style="fill:#231f20;fill-opacity:1;fill-rule:nonzero;stroke:none"
         d="m 6490.13,3018.71 c 0.28,31.61 -25.62,58.26 -56.61,58.26 -30.75,0.01 -57.63,-26.99 -57.73,-57.98 -0.09,-30.6 27.12,-58.29 57.47,-58.49 30.95,-0.19 56.58,26.05 56.87,58.21 z m -9.7,376.76 c -0.85,31.69 -27.83,57.2 -58.89,55.68 -31.05,-1.52 -56.67,-29.43 -55.19,-60.13 1.49,-31.14 29.6,-57.66 59.69,-56.29 31.04,1.4 55.27,28.46 54.39,60.74 z m -244.31,-251.21 c -31.73,-0.42 -56.25,-26.19 -55.62,-58.76 0.62,-32.09 19.79,-55.39 56.86,-57.45 29.71,-1.65 57.12,27.94 57.16,58.58 0.05,29.99 -28.37,58.02 -58.4,57.63 z m 143.04,42.25 c 30.71,-0.88 57.6,24.77 59.16,56.41 1.47,29.52 -26.17,59.02 -55.95,59.75 -31.73,0.78 -57.23,-24.1 -57.95,-56.55 -0.74,-32.85 23.01,-58.71 54.74,-59.61 z m -148.28,95.92 c 0.31,31.83 -25.25,58.51 -56.24,58.68 -30.85,0.16 -57.98,-26.84 -57.91,-57.66 0.07,-31.77 25.57,-57.93 56.97,-58.48 31.26,-0.53 56.86,25.19 57.18,57.46 z m -180.22,-185.44 c 15.37,69.8 11.46,138.07 2.74,206.65 25.41,28.87 55.31,49.82 86.36,69.14 90.48,56.3 189.53,90.35 293.58,110.34 50.97,9.78 58.78,4.65 77.25,-45.99 57.44,-157.46 58.58,-315.09 -0.13,-472.58 -3.89,-10.43 -7.71,-21.08 -13.17,-30.71 -10.15,-17.91 -22.37,-22.7 -43.93,-19.19 -90.19,14.69 -176.81,40.88 -258.71,81.71 -51.66,25.75 -99.57,57.09 -143.99,100.63" /><path
         id="path38"
         style="fill:#231f20;fill-opacity:1;fill-rule:nonzero;stroke:none"
         d="m 5973.72,3229.42 c -32.57,4.14 -59.77,-17.4 -63.32,-50.16 -3.58,-33.06 16.5,-58.83 49.96,-64.14 29.77,-4.72 59.39,18.62 64.27,50.66 4.62,30.3 -18.78,59.55 -50.91,63.64 z M 6034,3102.51 c -48.45,-2.27 -92.62,-3.81 -138.61,0.79 -20.53,65.14 -14.27,129.13 -4.6,192.46 37.93,7.7 92.72,8.36 143.27,2 17.52,-63.09 16.6,-126.88 -0.06,-195.25" /><path
         id="path40"
         style="fill:#ffffff;fill-opacity:1;fill-rule:nonzero;stroke:none"
         d="m 5509.04,3061.88 c -31.66,-0.67 -57.3,24.46 -57.88,56.72 -0.57,32.07 24.42,58.72 55.56,59.25 30.81,0.52 57.66,-25.63 58.5,-56.96 0.82,-31.02 -25.2,-58.36 -56.18,-59.01" /><path
         id="path42"
         style="fill:#ffffff;fill-opacity:1;fill-rule:nonzero;stroke:none"
         d="m 5578.28,3384.87 c -1.65,-32.26 -28.27,-56.32 -59.88,-54.1 -30.42,2.12 -56.27,31.67 -53.76,61.42 2.64,31.28 30.88,56.46 61.04,54.4 31.31,-2.13 54.26,-29.06 52.6,-61.72" /><path
         id="path44"
         style="fill:#ffffff;fill-opacity:1;fill-rule:nonzero;stroke:none"
         d="m 5741.45,3053.6 c 0.52,-32.77 -23.6,-58.56 -55.25,-59.05 -30.81,-0.47 -57.52,25.39 -58.67,56.81 -1.08,29.43 26.66,58.52 56.5,59.24 31.41,0.77 56.9,-24.54 57.42,-57" /><path
         id="path46"
         style="fill:#ffffff;fill-opacity:1;fill-rule:nonzero;stroke:none"
         d="m 5760.48,3241.88 c 1.04,-32.87 -22.65,-59.57 -53.8,-60.65 -30.16,-1.04 -58.18,25.38 -59.68,56.24 -1.48,30.68 23.89,58.1 55.3,59.77 31.8,1.7 57.14,-22.41 58.18,-55.36" /><path
         id="path48"
         style="fill:#ffffff;fill-opacity:1;fill-rule:nonzero;stroke:none"
         d="m 6230.88,3282.43 c -0.32,-32.27 -25.92,-57.99 -57.18,-57.46 -31.4,0.55 -56.9,26.71 -56.97,58.48 -0.07,30.82 27.06,57.82 57.91,57.66 30.99,-0.17 56.55,-26.85 56.24,-58.68" /><path
         id="path50"
         style="fill:#ffffff;fill-opacity:1;fill-rule:nonzero;stroke:none"
         d="m 6379.16,3186.51 c -31.73,0.9 -55.48,26.76 -54.74,59.61 0.72,32.45 26.22,57.33 57.95,56.55 29.78,-0.73 57.42,-30.23 55.95,-59.75 -1.56,-31.64 -28.45,-57.29 -59.16,-56.41" /><path
         id="path52"
         style="fill:#ffffff;fill-opacity:1;fill-rule:nonzero;stroke:none"
         d="m 6236.12,3144.26 c 30.03,0.39 58.45,-27.64 58.4,-57.63 -0.04,-30.64 -27.45,-60.23 -57.16,-58.58 -37.07,2.06 -56.24,25.36 -56.86,57.45 -0.63,32.57 23.89,58.34 55.62,58.76" /><path
         id="path54"
         style="fill:#ffffff;fill-opacity:1;fill-rule:nonzero;stroke:none"
         d="m 6480.43,3395.47 c 0.88,-32.28 -23.35,-59.34 -54.39,-60.74 -30.09,-1.37 -58.2,25.15 -59.69,56.29 -1.48,30.7 24.14,58.61 55.19,60.13 31.06,1.52 58.04,-23.99 58.89,-55.68" /><path
         id="path56"
         style="fill:#ffffff;fill-opacity:1;fill-rule:nonzero;stroke:none"
         d="m 6490.13,3018.71 c -0.29,-32.16 -25.92,-58.4 -56.87,-58.21 -30.35,0.2 -57.56,27.89 -57.47,58.49 0.1,30.99 26.98,57.99 57.73,57.98 30.99,0 56.89,-26.65 56.61,-58.26" /><path
         id="path58"
         style="fill:#ffffff;fill-opacity:1;fill-rule:nonzero;stroke:none"
         d="m 5973.72,3229.42 c 32.13,-4.09 55.53,-33.34 50.91,-63.64 -4.88,-32.04 -34.5,-55.38 -64.27,-50.66 -33.46,5.31 -53.54,31.08 -49.96,64.14 3.55,32.76 30.75,54.3 63.32,50.16" /><path
         id="path60"
         style="fill:#231f20;fill-opacity:1;fill-rule:nonzero;stroke:none"
         d="m 4564.83,2619.42 116.49,-104.43 -209.59,-95.87 64.11,-57.47 -31.57,-35.21 -117.67,105.49 208.34,95.11 -62.61,56.12 32.5,36.26" /><path
         id="path62"
         style="fill:#231f20;fill-opacity:1;fill-rule:nonzero;stroke:none"
         d="m 4828.94,2348.38 -74.73,-59.15 59.73,-34.89 z m 12.77,71.95 43.09,-25.19 -44.56,-273.43 -44.17,25.8 9.4,56.2 -91.1,53.22 -45.03,-35.37 -44.17,25.8 216.54,172.97" /><path
         id="path64"
         style="fill:#231f20;fill-opacity:1;fill-rule:nonzero;stroke:none"
         d="m 5089.68,2284.27 46.51,-17.65 -31.65,-83.34 97.27,58.41 55.25,-20.97 -125.38,-75.83 41.8,-169.03 -54.56,20.73 -33.74,135.69 -40.78,-107.4 -46.51,17.66 91.79,241.73" /><path
         id="path66"
         style="fill:#231f20;fill-opacity:1;fill-rule:nonzero;stroke:none"
         d="m 5441.72,2044.78 14.94,-3.8 c 15.17,-3.86 26.13,-4.52 32.86,-1.98 6.73,2.54 11.27,8.42 13.61,17.65 1.39,5.46 1.19,10.58 -0.61,15.36 -1.81,4.75 -4.86,8.62 -9.17,11.6 -4.31,2.97 -12.8,6.07 -25.48,9.29 l -13.08,3.33 z m -22.81,110.09 50.54,-12.85 c 27.68,-7.04 46.76,-14.52 57.25,-22.44 10.48,-7.93 17.84,-18.53 22.08,-31.81 4.23,-13.29 4.36,-27.78 0.37,-43.45 -4.18,-16.46 -11.63,-29.24 -22.34,-38.3 -10.7,-9.07 -24.73,-14.42 -42.07,-16.06 l 31.06,-126.51 -52.15,13.25 -29.39,120.46 -4.36,1.11 -26.97,-106.14 -47.7,12.12 63.68,250.62" /><path
         id="path68"
         style="fill:#231f20;fill-opacity:1;fill-rule:nonzero;stroke:none"
         d="m 5715.97,2093.29 156.12,-10.15 -105.57,-204.86 85.9,-5.59 -3.07,-47.19 -157.69,10.26 105.07,203.49 -83.91,5.45 3.15,48.59" /><path
         id="path70"
         style="fill:#231f20;fill-opacity:1;fill-rule:nonzero;stroke:none"
         d="m 6066.44,2082.07 140.58,12.6 4.3,-47.98 -91.91,-8.23 4.17,-46.57 91.92,8.23 4.22,-47.09 -91.92,-8.24 6.07,-67.75 91.92,8.24 4.31,-48.16 -140.59,-12.59 -23.07,257.54" /><path
         id="path72"
         style="fill:#231f20;fill-opacity:1;fill-rule:nonzero;stroke:none"
         d="m 6340.55,2106.3 46.9,12 77.12,-150.63 3.81,171.35 39.65,10.14 86.31,-148.29 -5.07,169.09 46.9,12 7.68,-264.94 -45.74,-11.71 -87.6,150.13 -3.85,-173.53 -45.3,-11.59 -120.81,235.98" /><path
         id="path74"
         style="fill:#231f20;fill-opacity:1;fill-rule:nonzero;stroke:none"
         d="m 6877.37,2254.2 -20.46,-44.1 c -18.87,11.17 -34.38,14.09 -46.54,8.77 -5.91,-2.6 -10.05,-6.3 -12.43,-11.12 -2.36,-4.82 -2.68,-9.21 -0.95,-13.18 1.75,-3.97 4.74,-7.13 8.98,-9.5 5.73,-3.11 21.2,-8.43 46.4,-15.93 23.51,-6.83 37.92,-11.31 43.22,-13.47 13.19,-5.23 23.53,-11.21 31.05,-17.96 7.51,-6.75 13.46,-15.11 17.83,-25.09 8.53,-19.42 8.85,-38.42 0.98,-56.97 -7.88,-18.56 -22.61,-32.57 -44.2,-42.04 -16.87,-7.4 -33.37,-9.71 -49.52,-6.95 -16.13,2.79 -32.55,11.07 -49.24,24.86 l 27.87,39.48 c 20.57,-15.93 38.27,-20.64 53.1,-14.13 7.74,3.39 13.26,8.5 16.55,15.31 3.28,6.83 3.63,13.19 1.05,19.08 -2.36,5.37 -6.7,9.87 -13.03,13.49 -6.34,3.61 -18.69,7.99 -37.09,13.1 -35.03,9.71 -58.81,18.63 -71.36,26.75 -12.53,8.14 -21.3,17.88 -26.29,29.26 -7.19,16.42 -7.12,33.25 0.25,50.5 7.35,17.24 20.22,29.88 38.6,37.95 11.82,5.18 24.27,7.38 37.35,6.6 13.11,-0.78 29.06,-5.68 47.88,-14.71" /><path
         id="path76"
         style="fill:#231f20;fill-opacity:1;fill-rule:nonzero;stroke:none"
         d="m 7180.45,2417.84 -12.39,-45.92 c -32.86,8.99 -61.8,5.91 -86.82,-9.29 -21.11,-12.82 -34.52,-30.85 -40.2,-54.07 -5.71,-23.21 -2.12,-45.41 10.72,-66.56 8.95,-14.74 20.11,-25.88 33.46,-33.42 13.34,-7.54 27.84,-11.02 43.51,-10.42 15.67,0.59 30.66,5.24 44.96,13.93 12.22,7.42 22,16.47 29.33,27.18 7.33,10.69 13.4,25.73 18.2,45.12 l 46.59,-12.44 c -6.64,-25.85 -15.36,-46.26 -26.14,-61.24 -10.78,-14.98 -25.49,-28.14 -44.11,-39.45 -34.36,-20.87 -69.09,-27.06 -104.21,-18.56 -35.12,8.5 -63.02,29.76 -83.7,63.83 -13.38,22.03 -20.29,44.64 -20.73,67.82 -0.43,23.17 5.48,45.61 17.72,67.32 12.26,21.7 29.1,39.06 50.54,52.07 18.23,11.08 38.11,17.89 59.68,20.44 21.55,2.55 42.75,0.43 63.59,-6.34" /><path
         id="path78"
         style="fill:#231f20;fill-opacity:1;fill-rule:nonzero;stroke:none"
         d="m 7238.4,2485.39 42.3,31.69 94.38,-45.51 -17.36,103.23 41.75,31.29 27.35,-162.71 67.15,-89.6 -39.67,-29.72 -67.15,89.61 -148.75,71.72" /><path
         id="path80"
         style="fill:#231f20;fill-opacity:1;fill-rule:nonzero;stroke:none"
         d="m 3961.19,5424.58 142.09,-80.13 11.23,19.9 c 11.05,19.6 16.82,35.08 17.3,46.45 0.48,11.36 -3,22.85 -10.47,34.46 -7.46,11.6 -18.95,21.79 -34.49,30.54 -23.91,13.49 -46.22,17.27 -66.95,11.33 -18.64,-5.36 -35.48,-21.36 -50.5,-48 z m -65.34,-19.25 28.64,50.79 c 18.46,32.73 36.24,54.77 53.32,66.1 17.09,11.33 37.67,17 61.76,17 24.08,0 48.32,-6.89 72.71,-20.64 17.36,-9.79 31.68,-21.67 42.98,-35.63 11.29,-13.96 18.87,-28.73 22.74,-44.29 3.88,-15.56 4.32,-30.29 1.32,-44.19 -3,-13.9 -12.72,-35.43 -29.17,-64.6 l -29.07,-51.56 -225.23,127.02" /><path
         id="path82"
         style="fill:#231f20;fill-opacity:1;fill-rule:nonzero;stroke:none"
         d="m 4135.95,5760.69 33.38,36.41 126.46,-115.93 c 20.13,-18.46 32.79,-33 37.98,-43.64 5.19,-10.64 6.81,-21.83 4.88,-33.57 -1.94,-11.73 -7.62,-22.74 -17.04,-33.02 -19.25,-20.99 -44.84,-30.44 -76.78,-28.34 l -0.49,48.62 c 11.87,-0.23 20.78,0.65 26.76,2.66 5.96,2 10.69,4.9 14.17,8.7 3.56,3.88 4.58,8.28 3.04,13.19 -1.54,4.91 -7.88,12.48 -19.03,22.69 l -133.33,122.23" /><path
         id="path84"
         style="fill:#231f20;fill-opacity:1;fill-rule:nonzero;stroke:none"
         d="m 4346.52,5841.92 65.79,62.41 30.73,-32.4 -65.8,-62.4 -30.72,32.39" /><path
         id="path86"
         style="fill:#231f20;fill-opacity:1;fill-rule:nonzero;stroke:none"
         d="m 4460.45,6084.02 108.06,90.81 30.98,-36.87 -70.65,-59.37 30.09,-35.8 70.65,59.38 30.42,-36.2 -70.65,-59.38 43.77,-52.07 70.65,59.37 31.09,-37.01 -108.05,-90.81 -166.36,197.95" /><path
         id="path88"
         style="fill:#231f20;fill-opacity:1;fill-rule:nonzero;stroke:none"
         d="m 6562.74,6555.81 45.55,-16.4 -20.73,-167.96 99.33,139.68 38.51,-13.87 -11.81,-171.17 90.71,142.78 45.57,-16.4 -142.38,-223.57 -44.42,15.99 11.79,173.42 -100.61,-141.46 -43.99,15.84 32.48,263.12" /><path
         id="path90"
         style="fill:#231f20;fill-opacity:1;fill-rule:nonzero;stroke:none"
         d="m 7031.08,6313.66 c -21.42,10.69 -43.14,12.23 -65.16,4.63 -22.01,-7.61 -38.76,-22.89 -50.22,-45.85 -12.78,-25.58 -13.7,-50.4 -2.77,-74.46 8.47,-18.77 21.94,-32.76 40.4,-41.98 20.89,-10.43 42.44,-11.77 64.68,-4 22.23,7.76 38.87,22.7 49.92,44.82 10.99,22.02 12.89,44.35 5.71,66.99 -7.17,22.64 -21.36,39.26 -42.56,49.85 z m 21.98,42.85 c 32.73,-16.34 54.96,-42.24 66.68,-77.7 11.73,-35.46 9.08,-70.22 -7.93,-104.29 -16.87,-33.76 -42.75,-56.53 -77.67,-68.3 -34.9,-11.78 -68.93,-9.39 -102.09,7.16 -34.72,17.34 -57.59,43.75 -68.57,79.23 -10.99,35.48 -8.23,69.74 8.26,102.76 11.05,22.12 26.55,39.79 46.51,53.01 19.97,13.21 42.04,20.57 66.18,22.07 24.14,1.5 47.02,-3.15 68.63,-13.94" /><path
         id="path92"
         style="fill:#231f20;fill-opacity:1;fill-rule:nonzero;stroke:none"
         d="m 7288.57,6163.58 -80.56,-141.84 19.87,-11.29 c 19.57,-11.11 35.03,-16.93 46.4,-17.44 11.36,-0.52 22.86,2.94 34.48,10.36 11.63,7.43 21.86,18.89 30.66,34.4 13.56,23.87 17.4,46.17 11.52,66.92 -5.3,18.65 -21.25,35.54 -47.85,50.65 z m -19.06,65.4 50.71,-28.79 c 32.68,-18.56 54.66,-36.4 65.94,-53.53 11.28,-17.11 16.89,-37.72 16.81,-61.8 -0.07,-24.08 -7.02,-48.29 -20.86,-72.65 -9.83,-17.32 -21.76,-31.61 -35.75,-42.86 -14,-11.26 -28.79,-18.8 -44.36,-22.62 -15.57,-3.83 -30.3,-4.22 -44.2,-1.18 -13.89,3.04 -35.4,12.82 -64.51,29.36 l -51.47,29.23 127.69,224.84" /><path
         id="path94"
         style="fill:#231f20;fill-opacity:1;fill-rule:nonzero;stroke:none"
         d="m 7546.39,6030.52 110.91,-110.34 -214.29,-84.85 61.03,-60.72 -33.35,-33.52 -112.04,111.46 213.01,84.14 -59.61,59.31 34.34,34.52" /><path
         id="path96"
         style="fill:#231f20;fill-opacity:1;fill-rule:nonzero;stroke:none"
         d="m 7751.23,5818.02 31.63,-37.25 -197.12,-167.35 -31.63,37.25 197.12,167.35" /><path
         id="path98"
         style="fill:#231f20;fill-opacity:1;fill-rule:nonzero;stroke:none"
         d="m 7826.06,5566.68 9.46,-12.17 c 9.61,-12.36 17.84,-19.61 24.72,-21.74 6.86,-2.14 14.06,-0.28 21.58,5.56 4.45,3.47 7.43,7.63 8.93,12.5 1.51,4.87 1.47,9.79 -0.09,14.79 -1.58,4.99 -6.38,12.66 -14.41,22.98 l -8.28,10.66 z m 49.61,100.89 31.99,-41.18 c 17.53,-22.54 28,-40.17 31.4,-52.87 3.41,-12.69 2.71,-25.58 -2.11,-38.66 -4.82,-13.09 -13.62,-24.59 -26.39,-34.52 -13.42,-10.42 -27.13,-15.93 -41.15,-16.51 -14.03,-0.58 -28.38,3.81 -43.07,13.17 l -53.18,-118.91 -33.02,42.48 50.79,113.12 -2.76,3.55 -86.48,-67.2 -30.19,38.87 204.17,158.66" /><path
         id="path100"
         style="fill:#231f20;fill-opacity:1;fill-rule:nonzero;stroke:none"
         d="m 8059.63,5411.32 59.58,-127.96 -43.66,-20.33 -38.96,83.66 -42.39,-19.73 38.96,-83.66 -42.87,-19.97 -38.95,83.67 -61.67,-28.72 38.95,-83.66 -43.81,-20.41 -59.59,127.97 234.41,109.14" /><path
         id="path102"
         style="fill:#231f20;fill-opacity:1;fill-rule:nonzero;stroke:none"
         d="m 8204.71,5107.25 19.8,-45.25 -157.15,-68.79 c -25.02,-10.95 -43.44,-16.65 -55.27,-17.09 -11.83,-0.45 -22.72,2.59 -32.67,9.1 -9.96,6.52 -17.73,16.17 -23.32,28.94 -11.42,26.09 -9.71,53.32 5.11,81.68 l 44.68,-19.2 c -5.01,-10.77 -7.81,-19.28 -8.39,-25.55 -0.58,-6.27 0.16,-11.76 2.23,-16.49 2.11,-4.83 5.72,-7.53 10.84,-8.11 5.12,-0.57 14.59,2.17 28.45,8.23 l 165.69,72.53" /><path
         id="path104"
         style="fill:#231f20;fill-opacity:1;fill-rule:nonzero;stroke:none"
         d="m 8266.99,4916.93 30,-137.93 -47.07,-10.24 -19.61,90.18 -45.69,-9.94 19.62,-90.17 -46.21,-10.05 -19.61,90.17 -66.47,-14.45 19.61,-90.18 -47.23,-10.27 -30,137.93 252.66,54.95" /></g></g></svg>